<svg xmlns="http://www.w3.org/2000/svg" viewBox="0 0 1616 1196" width="1616" height="1196">
  <defs>
  <g id="star">
    <path d="M158 12 Q176 74 189 128 Q246 118 299 124 Q253 158 215 189 Q238 245 253 301 Q203 259 158 218 Q112 254 70 291 Q90 241 103 188 Q54 158 11 122 Q70 118 126 126 Q141 70 158 12 Z" fill="#ffde14"/>
  </g>
  <g id="disco">
    <circle cx="88" cy="98" r="80" fill="#0091ff"/>
    <path d="M8 98 H168 M88 18 V178 M32 42 L144 154 M144 42 L32 154" stroke="#000" stroke-width="7"/>
    <path d="M88 18 V-16" stroke="#000" stroke-width="9" stroke-linecap="round"/>
  </g>
  <g id="bus">
    <path d="M8 24 L182 24 Q198 24 198 44 L198 130 L8 130 Z" fill="#eb030d"/>
    <g fill="#d6f3ff"><rect x="24" y="40" width="44" height="34" rx="3"/><rect x="82" y="40" width="44" height="34" rx="3"/><rect x="140" y="40" width="44" height="34" rx="3"/></g>
    <circle cx="52" cy="134" r="26" fill="#000"/><circle cx="154" cy="134" r="26" fill="#000"/>
    <circle cx="52" cy="134" r="10" fill="#ffffe7"/><circle cx="154" cy="134" r="10" fill="#ffffe7"/>
  </g>
  <g id="vinyl">
    <circle cx="90" cy="90" r="84" fill="#0091ff"/>
    <circle cx="90" cy="90" r="34" fill="#ff82ff"/>
    <circle cx="90" cy="90" r="9" fill="#ffffe7"/>
  </g>
  <g id="speaker">
    <rect x="8" y="8" width="114" height="176" rx="10" fill="#0091ff"/>
    <circle cx="65" cy="66" r="34" fill="#ffde14"/>
    <circle cx="65" cy="66" r="12" fill="#000"/>
    <circle cx="65" cy="142" r="21" fill="#ffde14"/>
  </g>
  <g id="tower">
    <rect x="10" y="10" width="120" height="230" rx="4" fill="#ff82ff"/>
    <g fill="#ffffe7">
      <rect x="28" y="34" width="26" height="30"/><rect x="86" y="34" width="26" height="30"/>
      <rect x="28" y="92" width="26" height="30"/><rect x="86" y="92" width="26" height="30"/>
      <rect x="28" y="150" width="26" height="30"/><rect x="86" y="150" width="26" height="30"/>
    </g>
  </g>
  <g id="pineapple">
    <path d="M74 4 L52 54 M74 4 L96 54 M40 22 L58 60 M108 22 L90 60" stroke="#4e992b" stroke-width="20" stroke-linecap="round"/>
    <ellipse cx="74" cy="150" rx="62" ry="90" fill="#ffde14"/>
    <path d="M22 108 L126 108 M18 150 L130 150 M26 192 L122 192" stroke="#000" stroke-width="7"/>
    <path d="M40 66 L48 236 M74 60 L74 240 M108 66 L100 236" stroke="#000" stroke-width="7"/>
  </g>
  <g id="mango">
    <path d="M96 12 Q170 30 172 108 Q174 190 96 214 Q18 190 20 108 Q22 34 96 12 Z" fill="#fd6b01"/>
    <path d="M96 12 Q120 2 138 14" stroke="#4e992b" stroke-width="16" stroke-linecap="round" fill="none"/>
  </g>
  <g id="bottle">
    <rect x="38" y="2" width="34" height="24" rx="4" fill="#ffde14"/>
    <rect x="45" y="24" width="20" height="38" fill="#fb5f01"/>
    <path d="M45 60 Q20 78 18 112 L18 196 Q18 214 36 214 L74 214 Q92 214 92 196 L92 112 Q90 78 65 60 Z" fill="#fb5f01"/>
    <rect x="26" y="122" width="58" height="54" rx="4" fill="#ffffe7"/>
  </g>
  <g id="blob">
    <path d="M84 8 Q152 8 158 78 Q164 152 84 156 Q6 152 10 78 Q14 8 84 8 Z" fill="#3cf02d"/>
    <circle cx="58" cy="70" r="10" fill="#000"/><circle cx="110" cy="70" r="10" fill="#000"/>
    <path d="M54 104 Q84 128 114 104" stroke="#000" stroke-width="9" fill="none" stroke-linecap="round"/>
  </g>
  <g id="bolt">
    <path d="M58 4 L14 96 L48 96 L30 168 L96 74 L58 74 L80 4 Z" fill="#ffde14"/>
  </g>
  <g id="palm">
    <path d="M92 190 Q86 110 96 40" stroke="#6b3a1a" stroke-width="18" fill="none" stroke-linecap="round"/>
    <path d="M96 40 Q40 20 8 54 Q54 44 96 40 Z" fill="#4e992b"/>
    <path d="M96 40 Q152 20 184 54 Q138 44 96 40 Z" fill="#4e992b"/>
    <path d="M96 40 Q80 -8 34 -8 Q76 14 96 40 Z" fill="#8cc212"/>
    <path d="M96 40 Q112 -8 158 -8 Q116 14 96 40 Z" fill="#8cc212"/>
  </g>
  <g id="cup">
    <path d="M20 34 L100 34 L86 148 Q84 158 72 158 L48 158 Q36 158 34 148 Z" fill="#eb030d"/>
    <rect x="10" y="16" width="100" height="20" rx="6" fill="#ffffe7"/>
    <path d="M74 16 L88 -22" stroke="#000" stroke-width="9" stroke-linecap="round"/>
  </g>
  <g id="sparkle">
    <path d="M50 2 Q60 40 98 50 Q60 60 50 98 Q40 60 2 50 Q40 40 50 2 Z" fill="#ffffe7"/>
  </g>
  <g id="lime">
    <circle cx="90" cy="90" r="84" fill="#4e992b"/>
    <circle cx="90" cy="90" r="66" fill="#8cc212"/>
    <path d="M90 90 L90 26 M90 90 L145 58 M90 90 L145 122 M90 90 L90 154 M90 90 L35 122 M90 90 L35 58" stroke="#000" stroke-width="8" stroke-linecap="round" fill="none"/>
  </g>
  <g id="coconut">
    <circle cx="90" cy="90" r="84" fill="#6b3a1a"/>
    <circle cx="90" cy="90" r="60" fill="#ffffe7"/>
    <circle cx="62" cy="52" r="7" fill="#000"/>
    <circle cx="118" cy="52" r="7" fill="#000"/>
    <circle cx="90" cy="34" r="7" fill="#000"/>
  </g>
  <g id="melon">
    <path d="M8 100 A 84 84 0 0 1 176 100 Z" fill="#4e992b"/>
    <path d="M24 100 A 68 68 0 0 1 160 100 Z" fill="#eb030d"/>
    <ellipse cx="70" cy="66" rx="6" ry="9" fill="#000"/>
    <ellipse cx="112" cy="66" rx="6" ry="9" fill="#000"/>
    <ellipse cx="91" cy="42" rx="6" ry="9" fill="#000"/>
  </g>
  <g id="pouch">
    <path d="M46 2 h28 a6 6 0 0 1 6 6 v16 a6 6 0 0 1-6 6 h-28 a6 6 0 0 1-6-6 v-16 a6 6 0 0 1 6-6z" fill="#fff"/>
    <path d="M52 28 h16 v16 h-16z" fill="#fff"/>
    <path d="M22 44 L98 44 L106 176 Q106 198 84 198 L36 198 Q14 198 14 176 Z" fill="#3cf02d"/>
    <rect x="32" y="86" width="56" height="66" rx="4" fill="#fff"/>
  </g>
  </defs>
  <g stroke="#000" stroke-width="9" stroke-linejoin="round" stroke-linecap="round">
    <use href="#star" transform="translate(252,-71) rotate(-2.4) scale(1.5)" stroke-width="6.7"/>
    <use href="#disco" transform="translate(589,-89) rotate(-1.7) scale(2.5)" stroke-width="4.0"/>
    <use href="#bus" transform="translate(885,-36) rotate(-15.8) scale(2.4)" stroke-width="4.2"/>
    <use href="#vinyl" transform="translate(1183,-107) rotate(14.6) scale(2.7)" stroke-width="3.7"/>
    <use href="#speaker" transform="translate(14,212) rotate(-20.5) scale(2.6)" stroke-width="3.8"/>
    <use href="#tower" transform="translate(379,231) rotate(-22.9) scale(2.0)" stroke-width="5.0"/>
    <use href="#pineapple" transform="translate(661,168) rotate(7.7) scale(2.1)" stroke-width="4.8"/>
    <use href="#mango" transform="translate(915,169) rotate(-24.2) scale(2.3)" stroke-width="4.3"/>
    <use href="#bottle" transform="translate(1310,167) rotate(-15.5) scale(2.3)" stroke-width="4.3"/>
    <use href="#blob" transform="translate(-95,525) rotate(-1.8) scale(3.0)" stroke-width="3.3"/>
    <use href="#bolt" transform="translate(350,498) rotate(1.0) scale(2.9)" stroke-width="3.4"/>
    <use href="#palm" transform="translate(568,482) rotate(8.1) scale(2.5)" stroke-width="4.0"/>
    <use href="#cup" transform="translate(1004,528) rotate(24.9) scale(2.7)" stroke-width="3.7"/>
    <use href="#sparkle" transform="translate(1331,619) rotate(10.4) scale(2.2)" stroke-width="4.5"/>
    <use href="#lime" transform="translate(-111,822) rotate(-10.5) scale(2.7)" stroke-width="3.7"/>
    <use href="#coconut" transform="translate(275,805) rotate(-5.0) scale(2.6)" stroke-width="3.8"/>
    <use href="#melon" transform="translate(593,876) rotate(22.9) scale(2.6)" stroke-width="3.8"/>
    <use href="#pouch" transform="translate(1016,804) rotate(-14.5) scale(2.4)" stroke-width="4.2"/>
  </g>
</svg>
