<svg xmlns="http://www.w3.org/2000/svg" viewBox="0 0 968 578" width="968" height="578">
  <defs>
  <g id="pouch">
    <path d="M46 2 h28 a6 6 0 0 1 6 6 v16 a6 6 0 0 1-6 6 h-28 a6 6 0 0 1-6-6 v-16 a6 6 0 0 1 6-6z" fill="#fff"/>
    <path d="M52 28 h16 v16 h-16z" fill="#fff"/>
    <path d="M22 44 L98 44 L106 176 Q106 198 84 198 L36 198 Q14 198 14 176 Z" fill="#3cf02d"/>
    <rect x="32" y="86" width="56" height="66" rx="4" fill="#fff"/>
  </g>
  <g id="bottle">
    <rect x="38" y="2" width="34" height="24" rx="4" fill="#ffde14"/>
    <rect x="45" y="24" width="20" height="38" fill="#fb5f01"/>
    <path d="M45 60 Q20 78 18 112 L18 196 Q18 214 36 214 L74 214 Q92 214 92 196 L92 112 Q90 78 65 60 Z" fill="#fb5f01"/>
    <rect x="26" y="122" width="58" height="54" rx="4" fill="#ffffe7"/>
  </g>
  <g id="lime">
    <circle cx="90" cy="90" r="84" fill="#4e992b"/>
    <circle cx="90" cy="90" r="66" fill="#8cc212"/>
    <path d="M90 90 L90 26 M90 90 L145 58 M90 90 L145 122 M90 90 L90 154 M90 90 L35 122 M90 90 L35 58" stroke="#000" stroke-width="8" stroke-linecap="round" fill="none"/>
  </g>
  <g id="melon">
    <path d="M8 100 A 84 84 0 0 1 176 100 Z" fill="#4e992b"/>
    <path d="M24 100 A 68 68 0 0 1 160 100 Z" fill="#eb030d"/>
    <ellipse cx="70" cy="66" rx="6" ry="9" fill="#000"/>
    <ellipse cx="112" cy="66" rx="6" ry="9" fill="#000"/>
    <ellipse cx="91" cy="42" rx="6" ry="9" fill="#000"/>
  </g>
  <g id="cup">
    <path d="M20 34 L100 34 L86 148 Q84 158 72 158 L48 158 Q36 158 34 148 Z" fill="#eb030d"/>
    <rect x="10" y="16" width="100" height="20" rx="6" fill="#ffffe7"/>
    <path d="M74 16 L88 -22" stroke="#000" stroke-width="9" stroke-linecap="round"/>
  </g>
  <g id="bolt">
    <path d="M58 4 L14 96 L48 96 L30 168 L96 74 L58 74 L80 4 Z" fill="#ffde14"/>
  </g>
  <g id="sparkle">
    <path d="M50 2 Q60 40 98 50 Q60 60 50 98 Q40 60 2 50 Q40 40 50 2 Z" fill="#ffffe7"/>
  </g>
  <g id="ice">
    <path d="M14 30 L70 6 L126 30 L126 92 L70 118 L14 92 Z" fill="#d6f3ff"/>
    <path d="M14 30 L70 56 L126 30 M70 56 L70 118" stroke="#000" stroke-width="7" fill="none"/>
  </g>
  </defs>
  <g stroke="#000" stroke-width="9" stroke-linejoin="round" stroke-linecap="round">
    <use href="#pouch" transform="translate(-20,280) rotate(-12) scale(1.2)"/>
    <use href="#bottle" transform="translate(90,330) rotate(10) scale(1.1)"/>
    <use href="#lime" transform="translate(250,410) rotate(-15) scale(0.9)"/>
    <use href="#melon" transform="translate(30,460) rotate(8) scale(1.0)"/>
    <use href="#cup" transform="translate(340,290) rotate(-10) scale(0.85)"/>
    <use href="#bolt" transform="translate(470,380) rotate(15) scale(0.8)"/>
    <use href="#sparkle" transform="translate(610,110) rotate(0) scale(1.0)"/>
    <use href="#ice" transform="translate(560,470) rotate(-8) scale(0.7)" stroke-width="12.9"/>
  </g>
</svg>
