<?xml version="1.0" encoding="UTF-8"?> <svg xmlns="http://www.w3.org/2000/svg" width="247" height="245" viewBox="0 0 247 245" fill="none"><path d="M224.768 80.2208C215.397 84.058 209.462 90.78 207.072 100.344C204.691 109.873 205.849 122.134 210.408 137.054L210.86 138.507C216.772 157.197 214.498 174.255 204.169 189.805C197.68 199.557 189.493 206.103 179.606 209.51C170.016 212.816 158.75 213.195 145.767 210.578L144.506 210.316C127.628 206.685 111.78 208.434 97.017 215.611C88.1617 201.737 75.5706 191.969 59.2898 186.227C46.2558 181.622 36.4589 175.256 29.8133 167.166C23.1764 159.088 19.6276 149.224 19.1935 137.515L19.1938 137.514C18.4927 118.849 25.5264 103.137 40.3909 90.3188L40.3923 90.3172C52.7287 79.6208 60.512 69.4443 63.5623 59.7758C66.5278 50.3752 64.9898 41.5407 59.0136 33.3648L92.9514 12.5866C93.6398 13.2711 94.3453 13.9624 95.0482 14.6468L95.0592 14.658C107.926 26.7834 124.93 35.8102 146.114 41.8448L146.118 41.8459C167.284 47.783 186.498 48.9939 203.767 45.3869L203.775 45.3859L203.782 45.384L206.685 44.7309L224.768 80.2208Z" fill="black" stroke="#FFFFE7" stroke-width="2"></path><g clip-path="url(#clip0_1_64)"><path d="M103.105 102.656C100.906 103.644 99.4906 105.309 98.9099 107.634C98.2912 110.111 98.6314 113.283 99.846 117.103C101.266 121.575 100.724 125.635 98.2575 129.342C96.7068 131.669 94.7599 133.217 92.4157 134.022C90.0641 134.829 87.2686 134.903 84.0045 134.202C79.9104 133.321 76.0512 133.713 72.4505 135.394C70.2548 132.07 67.1709 129.72 63.2212 128.327C60.0735 127.216 57.7324 125.689 56.1522 123.771C54.5769 121.858 53.7276 119.52 53.6218 116.725L53.6221 116.724C53.4516 112.273 55.1243 108.532 58.6864 105.468L58.6867 105.467C61.7162 102.847 63.6645 100.322 64.4329 97.8879C65.154 95.6026 64.8186 93.4426 63.4621 91.4494L71.2697 86.6835C71.3846 86.7962 71.4991 86.9099 71.6137 87.0213L71.6201 87.0272C74.8086 90.0255 79.0105 92.2489 84.2213 93.7332L84.2232 93.7338C89.4296 95.1942 94.1742 95.5001 98.4506 94.6117L98.4582 94.6098L98.9373 94.5016L103.105 102.656Z" fill="black" stroke="white" stroke-width="1.09833"></path><path fill-rule="evenodd" clip-rule="evenodd" d="M71.4075 87.2436C71.3387 87.1907 71.2794 87.1236 71.2136 87.0603L63.8867 91.5449C66.637 95.7037 64.9624 100.422 58.8674 105.686C58.5124 105.993 58.1648 106.314 57.8578 106.63L94.2761 95.4016C91.1367 95.5034 87.7516 95.0328 84.134 94.0213C78.8467 92.5155 74.6088 90.2612 71.4075 87.2436Z" fill="white"></path><path fill-rule="evenodd" clip-rule="evenodd" d="M76.7238 111.973L71.562 113.56L66.9843 129.753C68.412 130.61 69.6881 131.647 70.8147 132.837L76.7238 111.973Z" fill="white"></path><path fill-rule="evenodd" clip-rule="evenodd" d="M87.0363 108.792L81.8759 110.374L75.1784 134.067C76.7644 133.632 78.3946 133.416 80.0696 133.437L87.0363 108.792Z" fill="white"></path><path fill-rule="evenodd" clip-rule="evenodd" d="M66.3891 115.155L61.2236 116.735L58.6897 125.699C59.8442 126.534 61.211 127.25 62.7923 127.859L66.384 115.153L66.3891 115.155Z" fill="white"></path><path fill-rule="evenodd" clip-rule="evenodd" d="M56.0614 118.331L54.179 118.905C54.3816 119.868 54.6954 120.773 55.1295 121.628L56.0614 118.331Z" fill="white"></path><path fill-rule="evenodd" clip-rule="evenodd" d="M97.3631 105.608L92.1909 107.191L84.6053 134.026C86.2715 134.335 87.8124 134.435 89.2346 134.323L97.3631 105.608Z" fill="white"></path><path fill-rule="evenodd" clip-rule="evenodd" d="M99.548 117.184C99.4037 116.746 99.2712 116.306 99.1601 115.889L94.4025 132.72C95.7836 131.864 96.9883 130.684 98.0046 129.183C100.425 125.541 100.933 121.549 99.548 117.184Z" fill="white"></path><path fill-rule="evenodd" clip-rule="evenodd" d="M95.7495 97.3546C95.7125 97.0311 95.4729 96.8908 95.0324 96.9674L88.279 99.1271C87.8287 99.3966 87.5556 99.7106 87.4281 100.083L85.6301 106.443C85.5238 107.274 85.8413 107.593 86.5791 107.432L92.4632 105.681C93.0228 105.42 93.4616 104.974 93.7664 104.35L94.5973 101.411L91.6445 102.236L91.1178 104.099L89.4568 104.641C89.2716 104.684 89.1556 104.64 89.1191 104.512C89.0922 104.409 89.1117 104.242 89.1745 103.98L90.0416 100.715C90.1134 100.54 90.2231 100.409 90.3572 100.329L92.1515 99.6517C92.5453 99.4836 92.7182 99.5436 92.6628 99.8186L92.5648 100.165L95.195 99.316L95.7495 97.3546Z" fill="white"></path><path fill-rule="evenodd" clip-rule="evenodd" d="M77.3324 110.24L77.7669 108.703L76.2268 109.173L76.793 107.17L78.3095 106.705L78.0052 107.781L79.5726 107.274L80.5133 103.947L79.061 104.442L78.8898 105.047L77.2418 105.464L77.7202 103.772L79.8142 103.101L80.2115 103.453L82.0718 102.878L82.6745 100.746L73.8903 103.472L73.4383 105.071L74.6481 104.742L73.1485 110.047L71.9588 110.443L71.5538 111.955L77.3324 110.24Z" fill="white"></path><path fill-rule="evenodd" clip-rule="evenodd" d="M70.3142 110.464L67.8217 111.201L67.2292 113.297L69.7392 112.498L70.3142 110.464Z" fill="white"></path><path fill-rule="evenodd" clip-rule="evenodd" d="M80.9391 109.085L83.4514 108.297L84.0264 106.263L81.5287 106.999L80.9391 109.085Z" fill="white"></path><path fill-rule="evenodd" clip-rule="evenodd" d="M67.5907 105.835C67.4553 105.702 67.2204 105.625 66.8645 105.619L60.6837 107.393C60.0346 107.595 59.684 107.887 59.6415 108.294L58.8706 111.061C58.7935 111.492 58.8791 111.762 59.1318 111.856C59.3919 111.963 59.828 111.901 60.449 111.68L63.0366 110.903C63.5008 110.861 63.7565 110.944 63.7932 111.15L63.2855 112.946L61.1819 113.631C60.847 113.71 60.7617 113.557 60.9128 113.181L61.1952 112.182L58.3021 113.013L57.7725 114.886C57.5398 115.67 57.8034 116.001 58.573 115.867L64.8693 113.941C65.3998 113.823 65.7662 113.357 65.9768 112.572L66.6729 109.991C66.4504 109.336 65.902 109.063 65.0254 109.201L62.2879 109.976C62.0355 109.999 61.934 109.864 61.9629 109.604L62.1911 108.797C62.204 108.672 62.2584 108.559 62.3667 108.472C62.475 108.385 62.6379 108.303 62.8894 108.223L64.2334 107.815C64.5447 107.741 64.7066 107.82 64.6961 108.074L64.5294 108.664L67.3066 107.868L67.7382 106.341C67.7324 106.105 67.6892 105.942 67.5907 105.835Z" fill="white"></path><path fill-rule="evenodd" clip-rule="evenodd" d="M98.2529 102.004L95.7567 102.735L95.1628 104.836L97.6751 104.049L98.2529 102.004Z" fill="white"></path><path fill-rule="evenodd" clip-rule="evenodd" d="M77.1808 97.1242C77.5787 95.7165 77.4128 94.3674 76.706 93.0945C75.9903 91.8136 74.9288 90.9658 73.5245 90.58C72.1208 90.172 70.7829 90.3415 69.4973 91.0568C68.2199 91.7631 67.3826 92.8287 66.9832 94.2415C66.5882 95.6389 66.7437 96.9851 67.4579 98.2712C67.5054 98.3405 67.5536 98.4268 67.601 98.4961C68.309 99.6463 69.3105 100.41 70.6343 100.784C72.0305 101.179 73.3788 101.012 74.6615 100.308C75.9433 99.5856 76.7858 98.5216 77.1808 97.1242ZM73.1513 91.011C73.2422 91.0255 73.3146 91.046 73.4025 91.0708C73.9403 91.2229 74.4015 91.4483 74.8297 91.7314C74.8371 91.7447 74.8342 91.755 74.8312 91.7654C75.4439 94.3194 75.0171 96.2443 73.5875 97.528C73.5801 97.5148 73.5594 97.5089 73.5417 97.4927C74.3933 95.4085 74.2733 93.2452 73.1513 91.011ZM73.1695 97.7229C73.2212 97.7375 73.2884 97.7565 73.3476 97.7844C73.4222 97.8166 73.4784 97.8549 73.5213 97.9006C73.5362 97.9271 73.551 97.9537 73.5614 97.9957L73.5585 98.0061C73.5527 98.0268 73.5572 98.0504 73.5366 98.0837C73.5116 98.1325 73.4616 98.191 73.3768 98.2341C73.334 98.2668 73.2899 98.3046 73.2345 98.3225C73.1114 98.3827 72.9616 98.4186 72.7956 98.4331C72.597 98.4441 72.411 98.4306 72.2507 98.3853C72.2329 98.3691 72.2122 98.3632 72.1915 98.3574C72.0785 98.3031 72.0178 98.2412 71.9932 98.1504C71.9841 98.064 72.0149 97.9945 72.1151 97.9166C72.1151 97.9166 72.1284 97.9092 72.1313 97.8988L72.1416 97.9018C72.2897 97.7927 72.4911 97.7323 72.7317 97.7109C72.8889 97.6882 73.0373 97.6967 73.1695 97.7229ZM73.0032 97.3629C72.8991 97.3558 72.8208 97.356 72.7094 97.3748C72.4703 97.3911 72.2704 97.4463 72.0942 97.5362C69.7955 96.4226 69.0822 94.3822 69.9508 91.4085C70.7772 90.9938 71.6368 90.8176 72.5221 90.9058C73.743 93.1456 73.891 95.2889 73.0032 97.3629ZM76.8768 96.0267C76.8385 96.0829 76.7959 96.1547 76.7533 96.2265C75.9259 97.4346 74.9722 98.0033 73.9038 97.9304C75.4064 96.645 75.9212 94.745 75.4526 92.254C75.7716 92.5677 76.0383 92.9281 76.2719 93.3463C76.7554 94.2039 76.9548 95.0986 76.8768 96.0267ZM74.4661 99.8331L74.4263 99.8554C73.7098 100.256 72.964 100.465 72.1941 100.482C72.6581 100.065 72.9364 99.4957 73.0614 98.7374C73.0953 98.7358 73.1322 98.7239 73.1743 98.7134C73.5529 99.2508 73.9887 99.6255 74.4661 99.8331ZM73.6314 98.4794C73.6608 98.4542 73.6874 98.4393 73.7079 98.406C74.8024 98.5645 75.7787 98.153 76.6458 97.1798C76.3441 98.1284 75.7887 98.888 75.0195 99.4754C74.4966 99.3499 74.0358 99.0241 73.6314 98.4794ZM71.6838 98.4151C71.7119 98.4342 71.7267 98.4607 71.7674 98.4946C70.7691 98.9445 69.4968 98.8028 67.9653 98.0569C67.9475 98.0407 67.9401 98.0275 67.9327 98.0142C67.6323 97.4766 67.4464 96.949 67.3593 96.3878C68.5992 97.7108 70.0353 98.3794 71.6838 98.4151ZM72.3579 98.7565L72.3609 98.7462C72.4126 98.7608 72.4827 98.7695 72.5374 98.7737C72.3984 99.5616 72.0086 100.111 71.3745 100.418C71.1906 100.377 70.9912 100.332 70.7969 100.288C69.8949 100.022 69.1422 99.5633 68.5536 98.8995C70.0935 99.4577 71.3586 99.4074 72.3579 98.7565ZM67.3129 95.5643C67.3185 95.1691 67.3825 94.7847 67.498 94.3759C67.8053 93.2891 68.4069 92.4252 69.3184 91.7886C68.6121 94.702 69.4036 96.7421 71.698 97.9105C69.9978 97.8602 68.5312 97.0823 67.3129 95.5643Z" fill="black"></path><path d="M75.5758 81.1628L75.6566 83.2871L77.6992 83.8645L75.705 84.5974L75.791 86.7231L74.4771 85.0495L72.4866 85.789L73.6676 84.0214L72.3522 82.353L74.4 82.9318L75.5758 81.1628Z" fill="white"></path><path d="M97.3065 91.4904L95.3108 92.2285L96.497 90.4623L95.1764 88.7924L97.2227 89.3765L98.4052 87.6037L98.4794 89.7317L100.529 90.3054L98.5292 91.0368L98.6152 93.1626L97.3065 91.4904Z" fill="white"></path></g><path d="M118.574 98.4246L106.624 140.701" stroke="white" stroke-width="0.549163"></path><g clip-path="url(#clip1_1_64)"><path d="M138.953 119.101L140.042 115.251L132.119 106.08L131.528 105.913L131.53 105.908L127.082 104.65L116.579 141.806L121.027 143.063L126.199 124.764L138.954 119.101L138.953 119.101ZM130.142 110.816L134.618 115.997L127.825 119.013L130.142 110.816ZM139.949 143.656L148.083 145.955L146.838 150.361L134.256 146.805L144.76 109.648L149.207 110.905L139.949 143.656ZM170.396 157.021L165.949 155.764L174.37 125.972L169.886 118.034L173.913 115.809L177.585 122.31L184.009 118.678L186.311 122.662L178.929 126.835L170.396 157.021ZM161.231 130.75L152.939 128.406L160.959 151.626L156.591 153.114L147.063 125.529L147.764 123.05L166.965 113.859L168.974 118.008L155.641 124.39L162.483 126.324L161.232 130.751L161.231 130.75Z" fill="white"></path><path d="M183.451 154.072C182.593 153.829 181.945 154.375 181.631 155.396C181.837 154.455 181.62 153.749 180.809 153.52C179.998 153.291 179.175 153.736 178.853 154.873L177.667 159.069L183.179 160.628L184.414 156.259C184.716 155.192 184.332 154.321 183.451 154.072ZM180.204 158.067L179.469 157.868L180.13 155.531C180.203 155.272 180.337 155.098 180.629 155.18C180.92 155.263 180.935 155.479 180.862 155.738L180.204 158.067ZM182.269 158.643L181.456 158.421L182.163 155.919C182.236 155.66 182.426 155.502 182.717 155.585C183.008 155.667 183.047 155.889 182.974 156.148L182.269 158.643L182.269 158.643ZM184.434 149.359L186.222 149.864L185.774 151.449L183.994 150.946L179.355 153.099L179.907 151.146L182.935 149.791L181.065 147.051L181.617 145.098L184.434 149.359ZM184.329 135.502L189.841 137.06L189.486 138.315L185.436 141.033L188.475 141.892L188.027 143.477L182.515 141.919L182.868 140.671L186.921 137.946L183.881 137.087L184.329 135.502L184.329 135.502ZM190.405 129.89L191.76 130.273L190.197 135.803L184.684 134.245L186.248 128.715L187.602 129.098L186.487 133.043L187.203 133.246L188.299 129.371L189.582 129.734L188.487 133.609L189.29 133.836L190.405 129.89ZM193.326 124.734L192.878 126.319L191.098 125.815L186.459 127.968L187.011 126.015L190.039 124.66L188.168 121.921L188.72 119.967L191.538 124.229L193.326 124.734Z" fill="white"></path><path d="M191.537 120.763L192.713 121.096L192.669 121.251L192.199 121.119L191.868 122.289L191.632 122.223L191.963 121.052L191.493 120.919L191.537 120.763L191.537 120.763ZM194.024 121.467L193.285 122.272L193.076 121.199L192.87 121.14L192.495 122.467L192.71 122.528L192.95 121.677L193.13 122.646L193.221 122.672L193.882 121.941L193.642 122.791L193.856 122.852L194.231 121.525L194.024 121.467Z" fill="white"></path></g><defs><clipPath id="clip0_1_64"><rect width="48.9183" height="53.7816" fill="white" transform="translate(63.328 77.6902) rotate(15.7847)"></rect></clipPath><clipPath id="clip1_1_64"><rect width="69.1945" height="40.638" fill="white" transform="translate(127.638 102.699) rotate(15.7847)"></rect></clipPath></defs></svg> 