<svg xmlns="http://www.w3.org/2000/svg" viewBox="0 0 205 202"><path d="m204.9 89.79-.08-1.57c-.15-2.91-.3-5.83-.58-8.74-.31-3.29-.69-6.82-1.33-10.31s-1.52-7.16-2.6-11.37c-.89-3.49-1.74-6.33-2.67-8.94-1.3-3.67-2.77-7.22-4.17-10.55-.81-2-1.81-4.05-3-6.43a53.94 53.94 0 0 0-3.15-5.46c-1.66-2.46-3.51-5-5.65-7.86a33.18 33.18 0 0 0-3.71-4.2c-1.18-1.11-2.46-2.1-3.69-3.07l-1.1-.86a30.65 30.65 0 0 0-8.54-4.66A32.36 32.36 0 0 0 154 3.85a24 24 0 0 0-8.12 1.24 30.59 30.59 0 0 0-8.13 4.09 19.31 19.31 0 0 0-5 4.55 5.06 5.06 0 0 0-.86 5.06 15.12 15.12 0 0 0 .73 1.45l.26.48c1 1.82 2.71 2.34 4.18 2.78a2 2 0 0 0 2.14-.77 2 2 0 0 0-.32-2.26c-1-1.07-2.06-2.13-3.12-3.16-.38-.36-.34-.43-.22-.63a10.68 10.68 0 0 1 1.5-1.92 24.59 24.59 0 0 1 5.68-4.09 23.37 23.37 0 0 1 10.64-2.92 27.13 27.13 0 0 1 10.16 1.9 34.48 34.48 0 0 1 9.81 5.84 42.45 42.45 0 0 1 6.46 7 68.18 68.18 0 0 1 6.28 9.74c1.39 2.67 2.57 5.08 3.6 7.38l.38.86c1.21 2.71 2.46 5.51 3.4 8.33 1.24 3.69 2.29 7.53 3.31 11.23l.43 1.59a56.52 56.52 0 0 1 1.44 6.38c.54 3.53 1 7.37 1.5 11.74a111.53 111.53 0 0 1 .78 14.74v2.93c0 2.45-.07 5-.33 7.42-.9 8.44-2 17.4-4.42 26l-.19.7c-.68 2.42-1.36 4.83-2.16 7.21-.86 2.57-1.86 5.23-3 8.13a81.57 81.57 0 0 1-3.33 7.46c-1.55 2.92-3.31 5.93-5.38 9.19a65.31 65.31 0 0 1-4.46 6.07c-.93 1.14-2 2.23-3 3.28l-1.77 1.86a18.54 18.54 0 0 1-2 1.92c-2.75 2.18-4.89 3.78-6.94 5.2a32.31 32.31 0 0 1-7.94 3.92 39 39 0 0 1-8.87 1.82 24.6 24.6 0 0 1-8.37-.24l-1.06-.26c-1.38-.33-2.76-.66-4.12-1a43.26 43.26 0 0 1-4.19-1.42 38.06 38.06 0 0 1-9.59-6.28 41.94 41.94 0 0 1-7.41-7.61 66.56 66.56 0 0 1-3.87-5.61c-1.3-2.21-2.49-4.56-3.63-6.84l-.45-.9a41.58 41.58 0 0 1-1.92-4.34c-.78-2.08-1.68-4.55-2.46-7.13s-1.54-5.44-2.26-8.46a49.19 49.19 0 0 1-.87-5.19c-.35-2.9-.66-5.81-1-8.72l-.43-3.69c.89-.4 1.79-.79 2.69-1.17l2.35-1c1.39-.55 2.78-1.1 4.15-1.7 1.22-.53 2.44-1.1 3.64-1.66s2.46-1.14 3.71-1.68q2.5-1.08 5-2.11c1.43-.59 2.87-1.18 4.3-1.79s2.89-1.26 4.33-1.9 2.74-1.21 4.12-1.8 3-1.27 4.52-1.9l6.28-2.65c1.28-.55 2.55-1.1 3.84-1.63 1.6-.67 3.22-1.31 4.83-2l5.56-2.23c2.34-.94 4.68-1.89 7-2.81 2.51-1 5-2 7.54-2.92l12.23-4.66c1.92-.73 3.85-1.45 5.75-2.23 1.49-.6 3-1.26 4.43-1.92l2.12-.94a4.38 4.38 0 0 0 .92-.46 2.27 2.27 0 0 0 .74-.92 1.39 1.39 0 0 0-.73-1.91 4.67 4.67 0 0 0-.66-.23 1.89 1.89 0 0 0-1.09.11l-7.51 2.87q-4.38 1.68-8.75 3.34l-4.8 1.78-4.79 1.78q-2.47.93-4.94 1.91l-5.58 2.15c-2 .76-4 1.53-6 2.32-1.62.65-3.23 1.33-4.84 2l-6.58 2.75-7 2.93q-8.2 3.45-16.41 7c-2.28 1-4.54 2-6.81 2.94l-13.76 6v-.1a17.49 17.49 0 0 1-.06-2.4c.18-3.07.42-6.15.67-9.23v-.41a2.68 2.68 0 0 1 1.39-2.43 3 3 0 0 0 .74-.56 2 2 0 0 1 1.57-.43 1.51 1.51 0 0 1 1.14.63 15.22 15.22 0 0 1 .94 2 2.31 2.31 0 0 0 1.2 1.35 1.91 1.91 0 0 0 1.45 0 2.68 2.68 0 0 0 1.29-1.55 1.65 1.65 0 0 0 0-1.31 3.08 3.08 0 0 1 1.4-3 1 1 0 0 1 .54-.12c.48.05.95.14 1.42.23a17.86 17.86 0 0 0 2.28.32 9.6 9.6 0 0 0 3.42-.41 6.85 6.85 0 0 0 4.28-4.55 15.12 15.12 0 0 1 2.18-.74c2.22-.59 3.62-.4 4.85.65a2.22 2.22 0 0 0 1.56.4 1.42 1.42 0 0 0 1.45-1.61 1.92 1.92 0 0 0-.4-1.6 6.9 6.9 0 0 0-4.73-2.39 14.89 14.89 0 0 0-5.71 1 6.44 6.44 0 0 0-.69-1.28 7.68 7.68 0 0 0-6.53-3.02 5.19 5.19 0 0 0-2.36.63 6.68 6.68 0 0 0-3.67 5.43 7 7 0 0 0 .15 2.38 4.54 4.54 0 0 1 .1 1 7.18 7.18 0 0 0-2.47 2.56 4.9 4.9 0 0 0-.77-.51 5.39 5.39 0 0 0-4.92-.1A87.22 87.22 0 0 1 102.57 76l.71-1.7c.9-2.18 1.81-4.36 2.84-6.49a31.63 31.63 0 0 1 5.49-8.36c2.11-2.17 5.49-4.15 9.59-1.18a57.35 57.35 0 0 1 5.12 4.37l.53.49a4.37 4.37 0 0 0 5.37.92c.87 2 1.74 4.1 2.68 6.13a4.31 4.31 0 0 0 1.57 1.71 2.42 2.42 0 0 0 2.21.21 2.67 2.67 0 0 0 1.64-1.72 1.81 1.81 0 0 0-.35-1.86 1.85 1.85 0 0 0-1.82-.46l-.36-.82c-.9-2-1.8-4.09-2.79-6.09-.26-.51-.74-1.48-1.73-1.65a2.63 2.63 0 0 0-2.23 1c-.59.58-.77.55-1.3.16a17.47 17.47 0 0 1-1.59-1.38l-1.59-1.46a21 21 0 0 0-5.13-3.82 10.86 10.86 0 0 0-12.1 2.24 36 36 0 0 0-7.39 11.39l-1.37 3.3c-.33.79-.67 1.56-1 2.34a53.18 53.18 0 0 0-2.18 5.44C96.2 82.43 95.07 86.5 94 91.15c-.44 1.79-.73 3.63-1 5.4-.1.63-.2 1.26-.31 1.88 0-.16-.06-.34-.1-.5a11.88 11.88 0 0 0-3.09-5.88 6.55 6.55 0 0 0-4.85-2.11 10.76 10.76 0 0 0-5.9 1.86 58.45 58.45 0 0 0-5.61 4.2c-.6.51-1.18 1-1.77 1.56a26.13 26.13 0 0 1-5.34 4 4.58 4.58 0 0 1-2.5.59c.78-.81 1.55-1.63 2.27-2.49L67.28 98c1.83-2.16 3.73-4.4 5.47-6.71 2.91-3.84 5.67-7.7 8.2-11.46 2.22-3.3 4.42-6.83 6.73-10.8 2.84-4.88 5-8.88 6.93-12.61 1.66-3.28 3-6.54 4.63-10.46a37.4 37.4 0 0 0 1.23-3.61c.24-.8.49-1.59.76-2.38a39.69 39.69 0 0 0 2.16-9.58c.52-5.46-.28-10-2.43-14a12.77 12.77 0 0 0-5-5.17A20 20 0 0 0 85.7 8.77a37.32 37.32 0 0 0-11.65 2.12 57.36 57.36 0 0 0-11.78 5.62c-2.87 1.75-5.53 3.66-7.76 5.3-2.49 1.84-5.14 3.84-7.61 6s-5.23 4.79-8.34 7.94c-3.39 3.43-6.41 6.63-9.25 9.79a88.07 88.07 0 0 0-5.93 7.31 229.33 229.33 0 0 0-7.46 10.95c-1.23 1.89-2.35 3.87-3.42 5.79l-.5.91a80.51 80.51 0 0 0-5.27 10.78l-.81 2.06c-.65 1.62-1.31 3.3-1.84 5-.87 2.84-1.59 5.75-2.28 8.57l-.19.78a43.55 43.55 0 0 0-1.42 15.42l.14 1.29a41.84 41.84 0 0 0 .91 6 21.07 21.07 0 0 0 6.62 10.75 25.34 25.34 0 0 0 11.9 6.28 51.61 51.61 0 0 0 18.54.66 112.1 112.1 0 0 0 12.44-2.49l8.15-2.22c-.34 1.27-.68 2.55-1 3.82-1 3.57-1.94 7.15-2.79 10.76-.8 3.39-1.32 6.71-1.91 10.69a59.86 59.86 0 0 0-.81 8.38 52.79 52.79 0 0 0 .51 6.59l.22 2c.46 4.36 2.11 8.3 3.71 12.11a27.05 27.05 0 0 0 4.86 7.57 23.45 23.45 0 0 0 3.3 3.05 19.87 19.87 0 0 0 3 1.74l.4.2a14.17 14.17 0 0 0 5.54 1.71h1.31a17.35 17.35 0 0 0 8.39-2.06 22.31 22.31 0 0 0 8.7-8.4 43.48 43.48 0 0 0 4.71-11 66.38 66.38 0 0 0 2.15-12.79 69.44 69.44 0 0 0 .07-10.46c0-.58-.09-1.13-.15-1.67a81.23 81.23 0 0 0 1.67 3.71 66.25 66.25 0 0 0 7.23 12.16 74.77 74.77 0 0 0 6.92 8 52.22 52.22 0 0 0 11.65 8.17 32.11 32.11 0 0 0 9.4 3.26 39.36 39.36 0 0 0 17-.29 37.59 37.59 0 0 0 8.23-2.86 55.81 55.81 0 0 0 10.93-7.29 60.92 60.92 0 0 0 8-8.09 85.68 85.68 0 0 0 9.6-14c1.16-2.23 2.2-4.52 3.24-6.8.83-1.83 1.63-3.67 2.33-5.55l.61-1.6c1-2.66 2-5.4 2.85-8.19 1.37-4.66 2.43-8.83 3.23-12.75.57-2.76.9-5.59 1.22-8.33l.28-2.35c1-8.12 1.81-15.46 1.41-23Zm-96 2v-.51c.13-1.08.73-2 1.38-2.07 3.1-.4 4 .68 4.32 1.92l-3.29 2.32a2 2 0 0 1-2.1.11 5.51 5.51 0 0 1-.35-1.1 3.06 3.06 0 0 1 0-.67Zm-17.22 30.12a17 17 0 0 0 .09 1.75l.24 2.19c.23 2.16.47 4.38.81 6.58-1.39-3.55-2.81-6.75-4.32-9.73l1.83-.78 1.33-.56v.55Zm-34.85 7.82c-2.46.71-4.93 1.42-7.4 2.09a89.29 89.29 0 0 1-16.19 2.69 35.25 35.25 0 0 1-12.06-.8 24.37 24.37 0 0 1-3.39-1.32l-1.11-.49a21.92 21.92 0 0 1-2.91-1.45 19.15 19.15 0 0 1-6.25-5.91 21.72 21.72 0 0 1-2.95-7.77c-1.12-6.45-.21-12.8.7-17.61a72.8 72.8 0 0 1 4.37-14.4c1.07-2.57 2.34-5.54 3.81-8.36 1.84-3.52 3.8-7 5.84-10.33s4.1-6.45 6.06-9.09c3-4.07 5.59-7.29 8.12-10.14 3.23-3.65 6.75-7.18 10.28-10.73a86.35 86.35 0 0 1 6.57-6.06l.88-.72a87.9 87.9 0 0 1 10.5-7.77c.76-.45 1.51-.92 2.25-1.4 1-.59 1.89-1.19 2.86-1.74a52.2 52.2 0 0 1 9-3.89 34.09 34.09 0 0 1 10.53-1.76h.27a13.38 13.38 0 0 1 9.61 3.56 10.27 10.27 0 0 1 2.78 5 27.2 27.2 0 0 1-.2 13.42 66.05 66.05 0 0 1-4.57 12.81c-.37.8-.71 1.62-1 2.44s-.78 1.87-1.21 2.78c-1.2 2.49-2.5 5.15-3.9 7.68-1.74 3.16-3.58 6.34-5.47 9.44-1 1.62-2.06 3.2-3.12 4.79-.54.81-1.09 1.62-1.62 2.44L76.64 79c-.64 1-1.36 2.1-2.06 3.14s-1.43 2-2.17 2.94l-1.68 2.22c-1.27 1.68-2.53 3.36-3.87 5s-2.57 3-3.89 4.46l-1.61 1.8q-.6.67-1.23 1.35a17 17 0 0 1-2.94-8 28.58 28.58 0 0 1 2.16-14c.52-1.34 1.15-2.65 1.77-4 .34-.71.68-1.42 1-2.15a2.22 2.22 0 0 0 .15-1.07 1.31 1.31 0 0 0-1.56-1.28 1.72 1.72 0 0 0-1.26.53 7.92 7.92 0 0 0-1.23 1.68c-.38.76-.73 1.52-1.08 2.29s-.8 1.73-1.23 2.57a26.36 26.36 0 0 0-2.37 8 24.12 24.12 0 0 0 2.34 15.83 17.06 17.06 0 0 0 1 1.56l.33.49v.07c-2 1.59-4 3.14-6 4.69a6.07 6.07 0 0 1-.81.5c0-.35-.09-.71-.14-1.07-.08-.68-.17-1.35-.3-2-.4-2.13-.83-4.26-1.31-6.38-.44-1.9-.94-3.78-1.48-5.66a14.83 14.83 0 0 0-2.43-5 4.62 4.62 0 0 0-3.1-2 4.22 4.22 0 0 0-3.2 1.07A11.91 11.91 0 0 0 36 89.54a21.92 21.92 0 0 0-3.06 13 12.75 12.75 0 0 0 3.62 8.53 10 10 0 0 0 7.74 2.69 18.94 18.94 0 0 0 3-.44l.32 2.16c.23 1.53.45 3.07.74 4.58a32.66 32.66 0 0 0 1.24 4.42 3.51 3.51 0 0 0 1.89 2 3.61 3.61 0 0 0 2.84.13 2.26 2.26 0 0 0 1.41-2 1.08 1.08 0 0 0 0-.31 1.43 1.43 0 0 0-.3-.44 5.32 5.32 0 0 0-.38-.45 1.71 1.71 0 0 0-1-.46c-.59 0-.93-.12-1.2-1.51-.57-3-1.15-6-1.76-9.06-.05-.24 0-.32.15-.45l.59-.33a23.32 23.32 0 0 0 2.4-1.47c1.28-1 2.53-1.94 3.78-2.93l2.44-2c3.1 2.11 6 .6 7.94-.4a16.12 16.12 0 0 0 2.89-2c.82-.69 1.63-1.41 2.44-2.12 1.17-1 2.34-2 3.55-3a27.34 27.34 0 0 1 4.53-3 8.23 8.23 0 0 1 3.3-.76 2.69 2.69 0 0 1 2.12 1.38 11.49 11.49 0 0 1 2.19 6.7c0 1.35 0 2.7.11 4l.07 1.73a2 2 0 0 0 .27 1.14 2.49 2.49 0 0 0 1.3 1.13 1.54 1.54 0 0 0 .39 0v4.27c0 .76-.05 1.58-.06 2.38 0 .23 0 .31-.26.4-1.56.64-3.13 1.28-4.76 2l-.43-.58c-.62-.85-1.25-1.7-1.92-2.5-.54-.64-1.1-1.26-1.66-1.87a36.37 36.37 0 0 1-2.47-2.74 38.79 38.79 0 0 1-2.23-3.5c-.32-.54-.64-1.09-.9-1.5l-.17-.36c-.59-1.21-1.42-1.69-2.44-1.4-1.49.4-1.49 1.87-1.5 2.58v.78c-.14-.17-.28-.35-.44-.52a2.51 2.51 0 0 0-2.24-1 2.4 2.4 0 0 0-1.86 1.47 14 14 0 0 0-.61 1.43c-.11.32-.23.63-.37.94-.23.5-.46 1-.73 1.5a.15.15 0 0 1 0-.07c-.11-.49-.21-1-.36-1.48a7.43 7.43 0 0 0-1-2 2.5 2.5 0 0 0-2.15-1.16 2 2 0 0 0-1.36.88 2.41 2.41 0 0 0-.3 1.85l.09.43a21.49 21.49 0 0 0 .89 3.12c.91 2.29.57 4.56-1.34 7.21a1.15 1.15 0 0 1-.9-.45 15.31 15.31 0 0 1-1.18-2c-.21-.37-.41-.75-.63-1.12l-.17-.28a6.8 6.8 0 0 0-1-1.44 2.22 2.22 0 0 0-2.47-.32l-.63.52-.14.52a2.17 2.17 0 0 0 .17 1.64l.17.28c1.09 1.75 2.22 3.56 3.47 5.27a3.34 3.34 0 0 0 2.53 1.31 4.91 4.91 0 0 0 3.75-1.3 9 9 0 0 0 2.41-4.6 7.06 7.06 0 0 0 .14-1.59 4.82 4.82 0 0 0 3.6-3.23q.38-.9.72-1.83a2.51 2.51 0 0 0 .19.24 3 3 0 0 0 2.51 1.24 3 3 0 0 0 2.09-1c.77.94 1.56 1.86 2.36 2.78l1.81 2.11c1 1.14 1.93 2.27 3 3.52l-12.82 4.72c-1.82.67-3.65 1.32-5.47 2l-1.67.59a2.47 2.47 0 0 0-2.68.77l-.31.09-3 .85Zm-10.22-20.47a5.46 5.46 0 0 1-3.49.35h-.19a5.75 5.75 0 0 1-3.73-1.7 8.76 8.76 0 0 1-2.2-5.71 20.34 20.34 0 0 1 .06-3.09 12.87 12.87 0 0 1 1.64-5.75c.18-.29.34-.61.5-.92s.28-.54.44-.79l.17-.27a9.33 9.33 0 0 1 1.08-1.47c.15-.14.24-.2.25-.22a1.21 1.21 0 0 1 .32.27 8.17 8.17 0 0 1 1.88 3.6l.78 3c.55 2.09 1.1 4.18 1.56 6.3.4 1.83.62 3.76.85 5.62l.09.76ZM95.34 168A61.84 61.84 0 0 1 93 180.88a25.37 25.37 0 0 1-2.54 6.12l-.75 1.33a26.58 26.58 0 0 1-1.86 3 16.39 16.39 0 0 1-8 6.11 12.59 12.59 0 0 1-8.44-.07 16.64 16.64 0 0 1-8.13-6.26 32.91 32.91 0 0 1-4.28-7.83 63.87 63.87 0 0 1-1.77-6.22l-.16-.61c-1-4-1-8.08-.9-12.63a49.37 49.37 0 0 1 .56-5.68c.12-.86.24-1.71.34-2.57l1-4.16q1.38-5.78 2.77-11.56c.34-1.39.7-2.78 1.06-4.17l.81-3.13c.06-.28.12-.34.4-.44 3.37-1.14 6.74-2.28 10.08-3.5 3.84-1.39 7.65-2.85 11.6-4.36A76.11 76.11 0 0 1 89 133l1 2.72c.8 2.09 1.61 4.18 2.36 6.29a38.9 38.9 0 0 1 1.21 4.49c.46 2.07.89 4.17 1.23 6.27a69 69 0 0 1 .54 15.23Zm91.42-158a2.93 2.93 0 0 0 1.76.62 3 3 0 0 0 1.48-.42c2.25-1.2 2.36-4.2 1.45-6.62-.78-2.07-2.43-4-4.35-3.52A3.49 3.49 0 0 0 184.51 3c-.51 2.47.49 5.67 2.25 7Zm.52-7.27a1.15 1.15 0 0 1 1.12.27 5.26 5.26 0 0 1 1.07 4.31c-.1.43-.28.72-.47.77-1 .29-1.73-1.24-1.86-1.55-.65-1.54-.57-3.33.14-3.85Zm-9.28.54a2.44 2.44 0 0 1 0-1.11 1.13 1.13 0 0 1 1.3-.78 1.25 1.25 0 0 1 .87.63c.56 1 1 2 1.5 3s.88 1.91 1.4 2.83a11.09 11.09 0 0 0 1 1.67 3.63 3.63 0 0 0 .48.48 2.65 2.65 0 0 1 .78.92.68.68 0 0 1 .06.44.72.72 0 0 1-.49.42 1.71 1.71 0 0 1-1.09.15 2.15 2.15 0 0 1-.9-.62 12.51 12.51 0 0 1-1.48-1.85c-.65-.94-1.24-1.91-1.82-2.89a52.2 52.2 0 0 1-1.13-2 4.74 4.74 0 0 1-.5-1.24Z"/></svg>