<svg width="14" height="15" viewBox="0 0 14 15" fill="none" xmlns="http://www.w3.org/2000/svg">
<path d="M13.2887 12.4107C13.4649 12.5868 13.5638 12.8257 13.5638 13.0748C13.5638 13.3238 13.4649 13.5627 13.2887 13.7388C13.1126 13.915 12.8737 14.0139 12.6247 14.0139C12.3756 14.0139 12.1367 13.915 11.9606 13.7388L7.00045 8.77711L2.03874 13.7373C1.86262 13.9134 1.62374 14.0123 1.37467 14.0123C1.1256 14.0123 0.886731 13.9134 0.710611 13.7373C0.53449 13.5612 0.435547 13.3223 0.435547 13.0732C0.435547 12.8241 0.53449 12.5853 0.710611 12.4091L5.67233 7.44899L0.712173 2.48727C0.536053 2.31115 0.437109 2.07228 0.437109 1.82321C0.437109 1.57414 0.536053 1.33527 0.712173 1.15915C0.888293 0.983025 1.12716 0.884082 1.37624 0.884082C1.62531 0.884082 1.86418 0.983025 2.0403 1.15915L7.00045 6.12086L11.9622 1.15836C12.1383 0.982244 12.3772 0.883301 12.6262 0.883301C12.8753 0.883301 13.1142 0.982244 13.2903 1.15836C13.4664 1.33448 13.5654 1.57336 13.5654 1.82243C13.5654 2.0715 13.4664 2.31037 13.2903 2.48649L8.32858 7.44899L13.2887 12.4107Z" fill="#FFFFE7"/>
</svg>
