<svg width="81" height="48" viewBox="0 0 81 48" fill="none" xmlns="http://www.w3.org/2000/svg">
<path d="M17.9741 15.0018V10.2758L6.12864 2.39775H5.41039V2.3915H0V47.9975H5.41039V25.5365L17.9741 15.0015V15.0018ZM5.41039 8.41625L12.1017 12.8665L5.41039 18.4775V8.41625ZM26.915 42.5913H36.8099V48H21.5046V2.3915H26.915V42.5913ZM65.4684 48H60.058V11.4318L52.4792 3.85025L56.3064 0.0272503L62.5135 6.23675L68.5936 0.0442503L72.4545 3.833L65.4684 10.9483V48ZM46.7793 21.085H36.6917L53.1203 44.9003L48.6731 47.9948L29.1559 19.7023V16.6592L47.8587 0.0442503L51.4433 4.1145L38.4565 15.6512H46.7795V21.0852L46.7793 21.085Z" fill="black"/>
<path d="M79.2208 40.4568C78.1767 40.4568 77.6212 41.285 77.5921 42.5463C77.5251 41.4103 77.0558 40.6785 76.0692 40.6785C75.0826 40.6785 74.2969 41.449 74.2969 42.845V47.9955H81.0024V42.6328C81.0024 41.3238 80.2933 40.4568 79.2208 40.4568ZM76.8353 46.041L75.9447 46.051V43.1818C75.9447 42.8643 76.0401 42.6235 76.3949 42.6235C76.7496 42.6235 76.8353 42.8643 76.8353 43.1818V46.041ZM79.3453 46.0318L78.3587 46.0413V42.9703C78.3587 42.6523 78.5215 42.412 78.8757 42.412C79.23 42.412 79.345 42.6523 79.345 42.9703V46.032L79.3453 46.0318ZM78.8282 34.7843H81.0026V36.7293H78.8377L74.2971 40.6668V38.2698L77.2764 35.7565L74.2971 33.2438V30.8462L78.8282 34.7843ZM74.2969 19.0678H81.0024V20.6083L77.3048 24.9988H81.0024V26.9438H74.2969V25.4128L77.9944 21.013H74.2969V19.068V19.0678ZM79.3545 10.737H81.0024V17.525H74.2969V10.737H75.9447V15.58H76.8161V10.8238H78.3778V15.58H79.3545V10.737ZM81.0024 3.938V5.883H78.8374L74.2969 9.8205V7.4235L77.2762 4.91025L74.2969 2.3975V0L78.8279 3.938H81.0024Z" fill="black"/>
<path d="M77.7268 0H79.1576L79.1571 0.191L78.5852 0.1915V1.62825H78.2989V0.1915L77.7271 0.191L77.7266 0L77.7268 0ZM80.7527 0L80.1761 1.1535L79.5995 0H79.3483V1.6285H79.6099V0.58475L80.1206 1.6285H80.2316L80.7435 0.58475V1.6285H81.0039V0H80.7527Z" fill="black"/>
</svg>
